<svg width="50.62" height="14.8" viewBox="0 0 50.62 14.8" xmlns="http://www.w3.org/2000/svg"><g id="svgGroup" stroke-linecap="round" fill-rule="evenodd" font-size="9pt" stroke="currentColor" stroke-width="0.5mm" fill="currentColor" style="stroke:currentColor;stroke-width:0.5mm;fill:currentColor;"><path fill="currentColor" d="M 5.27 14.8 L 4.33 14.8 L 0 0 L 0.73 0 L 4.89 14.4 L 4.73 14.4 L 8.95 0 L 9.89 0 L 14.12 14.4 L 13.96 14.4 L 18.13 0 L 18.82 0 L 14.5 14.8 L 13.56 14.8 L 9.33 0.48 L 9.5 0.48 L 5.27 14.8 Z" id="0" vector-effect="non-scaling-stroke"/><path d="M 19.4 14.8 L 18.67 14.8 L 24.3 0 L 25.16 0 L 30.79 14.8 L 30.04 14.8 L 24.6 0.4 L 24.84 0.4 L 19.4 14.8 Z M 28.32 9.52 L 21.14 9.52 L 21.34 8.86 L 28.12 8.86 L 28.32 9.52 Z" id="1" vector-effect="non-scaling-stroke"/><path d="M 33.74 14.8 L 33.06 14.8 L 33.06 0 L 33.74 0 L 33.74 14.8 Z" id="2" vector-effect="non-scaling-stroke"/><path d="M 38.24 14.8 L 37.58 14.8 L 37.58 0 L 38.33 0 L 44.28 12.48 L 43.96 12.48 L 49.87 0 L 50.62 0 L 50.62 14.8 L 49.96 14.8 L 49.96 0.58 L 50.32 0.58 L 44.48 12.8 L 43.72 12.8 L 37.86 0.58 L 38.24 0.58 L 38.24 14.8 Z" id="3" vector-effect="non-scaling-stroke"/></g></svg>